<svg xmlns="http://www.w3.org/2000/svg" viewBox="0 0 48 48" fill="none">
  <circle cx="24" cy="24" r="24" fill="#07C160"/>
  <path fill="#fff" d="M17.6 14.8c-5.4 0-9.8 3.7-9.8 8.3 0 2.7 1.5 5.1 3.9 6.7l-.9 3.3 3.7-1.9c1.1.3 2.2.5 3.4.5.3 0 .6 0 .9-.1-.2-.6-.3-1.2-.3-1.9 0-4.9 4.7-8.8 10.5-8.8.4 0 .8 0 1.1.1-1.2-4-5.7-7.1-11.5-7.1zm-3.6 5.5c-.8 0-1.4-.6-1.4-1.4s.6-1.4 1.4-1.4 1.4.6 1.4 1.4-.6 1.4-1.4 1.4zm7.2 0c-.8 0-1.4-.6-1.4-1.4s.6-1.4 1.4-1.4 1.4.6 1.4 1.4-.6 1.4-1.4 1.4z"/>
  <path fill="#fff" d="M40.2 29.4c0-4-4-7.3-8.9-7.3s-8.9 3.3-8.9 7.3 4 7.3 8.9 7.3c.9 0 1.8-.1 2.6-.4l3 .1.5-.2-1.1-.2.9-2.6c1.6-1.3 2.6-3.2 2.6-5.3zm-11.8-1.2c-.6 0-1.1-.5-1.1-1.1s.5-1.1 1.1-1.1 1.1.5 1.1 1.1-.5 1.1-1.1 1.1zm6.4 0c-.6 0-1.1-.5-1.1-1.1s.5-1.1 1.1-1.1 1.1.5 1.1 1.1-.5 1.1-1.1 1.1z"/>
</svg>
